<svg width="179" height="32" viewBox="0 0 179 32" fill="none" xmlns="http://www.w3.org/2000/svg">
<path d="M4.86274 14.1931C4.07943 14.1931 3.3766 14.0161 2.75425 13.662C2.14263 13.3079 1.65977 12.8197 1.30567 12.1973C0.962307 11.5642 0.790624 10.8346 0.790624 10.0084C0.790624 9.18214 0.962307 8.45785 1.30567 7.83549C1.65977 7.20241 2.14263 6.70882 2.75425 6.35472C3.3766 6.00063 4.07943 5.82358 4.86274 5.82358C5.84992 5.82358 6.67614 6.0811 7.34142 6.59615C8.01742 7.1112 8.45199 7.80867 8.64514 8.68855H6.85856C6.75126 8.24861 6.51519 7.90524 6.15036 7.65845C5.78554 7.41165 5.35633 7.28825 4.86274 7.28825C4.44426 7.28825 4.05797 7.39556 3.70388 7.61016C3.34978 7.81403 3.06543 8.11984 2.85082 8.52759C2.63622 8.92461 2.52892 9.4182 2.52892 10.0084C2.52892 10.5985 2.63622 11.0975 2.85082 11.5052C3.06543 11.9022 3.34978 12.2081 3.70388 12.4227C4.05797 12.6373 4.44426 12.7446 4.86274 12.7446C5.35633 12.7446 5.78554 12.6212 6.15036 12.3744C6.51519 12.1276 6.75126 11.7788 6.85856 11.3282H8.64514C8.46272 12.1866 8.03352 12.8787 7.35751 13.4045C6.68151 13.9303 5.84992 14.1931 4.86274 14.1931ZM13.4409 14.1931C12.4752 14.1931 11.7133 13.8927 11.1554 13.2918C10.6081 12.6909 10.3345 11.7949 10.3345 10.6039V6.01672H12.0406V10.4268C12.0406 11.972 12.6737 12.7446 13.9399 12.7446C14.573 12.7446 15.0934 12.5192 15.5011 12.0686C15.9089 11.6179 16.1127 10.9741 16.1127 10.1371V6.01672H17.8188V14H16.3059L16.1771 12.5997C15.9303 13.0933 15.5655 13.4849 15.0826 13.7747C14.6105 14.0537 14.0633 14.1931 13.4409 14.1931ZM19.9892 14V6.01672H21.5182L21.6631 7.52968C21.9421 7.0039 22.3284 6.59079 22.822 6.29034C23.3263 5.97917 23.9325 5.82358 24.6407 5.82358V7.61016H24.174C23.7018 7.61016 23.278 7.69064 22.9024 7.85159C22.5376 8.00181 22.2425 8.2647 22.0172 8.64026C21.8026 9.00509 21.6953 9.51477 21.6953 10.1693V14H19.9892ZM27.0692 4.50376C26.7473 4.50376 26.4791 4.40719 26.2645 4.21405C26.0606 4.01017 25.9587 3.75801 25.9587 3.45757C25.9587 3.15712 26.0606 2.91033 26.2645 2.71718C26.4791 2.51331 26.7473 2.41137 27.0692 2.41137C27.3912 2.41137 27.654 2.51331 27.8579 2.71718C28.0725 2.91033 28.1798 3.15712 28.1798 3.45757C28.1798 3.75801 28.0725 4.01017 27.8579 4.21405C27.654 4.40719 27.3912 4.50376 27.0692 4.50376ZM26.2162 14V6.01672H27.9223V14H26.2162ZM32.8785 14.1931C32.2025 14.1931 31.6445 14.0805 31.2046 13.8551C30.7647 13.6298 30.4374 13.3347 30.2228 12.9699C30.0082 12.5943 29.9009 12.1866 29.9009 11.7467C29.9009 10.9741 30.2013 10.3625 30.8022 9.91179C31.4031 9.46112 32.2615 9.23579 33.3775 9.23579H35.4699V9.09093C35.4699 8.46858 35.2982 8.00181 34.9548 7.69064C34.6222 7.37946 34.1876 7.22387 33.6511 7.22387C33.179 7.22387 32.7659 7.3419 32.4118 7.57797C32.0684 7.8033 31.8592 8.1413 31.784 8.59197H30.0779C30.1316 8.01254 30.3247 7.51895 30.6574 7.1112C31.0007 6.69273 31.4299 6.37619 31.945 6.16158C32.4708 5.93625 33.0448 5.82358 33.6672 5.82358C34.7831 5.82358 35.6469 6.11866 36.2585 6.70882C36.8702 7.28825 37.176 8.08229 37.176 9.09093V14H35.6952L35.5503 12.6319C35.325 13.0718 34.9977 13.442 34.5685 13.7425C34.1393 14.0429 33.576 14.1931 32.8785 14.1931ZM33.2165 12.8089C33.6779 12.8089 34.0642 12.7016 34.3754 12.487C34.6973 12.2617 34.9441 11.9666 35.1158 11.6018C35.2982 11.237 35.4109 10.8346 35.4538 10.3946H33.5545C32.8785 10.3946 32.3957 10.5127 32.1059 10.7487C31.827 10.9848 31.6875 11.2799 31.6875 11.634C31.6875 11.9988 31.8216 12.2885 32.0899 12.5031C32.3688 12.707 32.7444 12.8089 33.2165 12.8089ZM39.2296 14V2.73328H40.9357V12.648H46.0541V14H39.2296ZM50.5299 14.1931C49.8539 14.1931 49.296 14.0805 48.856 13.8551C48.4161 13.6298 48.0888 13.3347 47.8742 12.9699C47.6596 12.5943 47.5523 12.1866 47.5523 11.7467C47.5523 10.9741 47.8527 10.3625 48.4536 9.91179C49.0545 9.46112 49.9129 9.23579 51.0289 9.23579H53.1213V9.09093C53.1213 8.46858 52.9496 8.00181 52.6062 7.69064C52.2736 7.37946 51.839 7.22387 51.3025 7.22387C50.8304 7.22387 50.4173 7.3419 50.0632 7.57797C49.7198 7.8033 49.5106 8.1413 49.4354 8.59197H47.7293C47.783 8.01254 47.9761 7.51895 48.3088 7.1112C48.6521 6.69273 49.0814 6.37619 49.5964 6.16158C50.1222 5.93625 50.6962 5.82358 51.3186 5.82358C52.4345 5.82358 53.2983 6.11866 53.9099 6.70882C54.5216 7.28825 54.8274 8.08229 54.8274 9.09093V14H53.3466L53.2018 12.6319C52.9764 13.0718 52.6491 13.442 52.2199 13.7425C51.7907 14.0429 51.2274 14.1931 50.5299 14.1931ZM50.8679 12.8089C51.3293 12.8089 51.7156 12.7016 52.0268 12.487C52.3487 12.2617 52.5955 11.9666 52.7672 11.6018C52.9496 11.237 53.0623 10.8346 53.1052 10.3946H51.2059C50.5299 10.3946 50.0471 10.5127 49.7574 10.7487C49.4784 10.9848 49.3389 11.2799 49.3389 11.634C49.3389 11.9988 49.473 12.2885 49.7413 12.5031C50.0202 12.707 50.3958 12.8089 50.8679 12.8089ZM61.3073 14.1931C60.6849 14.1931 60.1323 14.0697 59.6494 13.823C59.1773 13.5762 58.8017 13.2274 58.5228 12.7768L58.3457 14H56.8167V2.41137H58.5228V7.25606C58.7803 6.8805 59.1344 6.54787 59.5851 6.25815C60.0357 5.96844 60.6152 5.82358 61.3233 5.82358C62.0959 5.82358 62.7773 6.00599 63.3675 6.37082C63.9576 6.73565 64.419 7.2346 64.7517 7.86768C65.095 8.50077 65.2667 9.21969 65.2667 10.0245C65.2667 10.8292 65.095 11.5481 64.7517 12.1812C64.419 12.8036 63.9576 13.2972 63.3675 13.662C62.7773 14.0161 62.0906 14.1931 61.3073 14.1931ZM61.0175 12.7124C61.7472 12.7124 62.3481 12.4656 62.8202 11.972C63.2923 11.4677 63.5284 10.8131 63.5284 10.0084C63.5284 9.48258 63.4211 9.01582 63.2065 8.60807C62.9919 8.20032 62.6968 7.88378 62.3213 7.65845C61.9457 7.42238 61.5111 7.30435 61.0175 7.30435C60.2879 7.30435 59.687 7.55651 59.2149 8.06083C58.7535 8.56515 58.5228 9.21433 58.5228 10.0084C58.5228 10.8131 58.7535 11.4677 59.2149 11.972C59.687 12.4656 60.2879 12.7124 61.0175 12.7124Z" fill="#FF4D61"/>
<path d="M68.7542 14.0006C69.7219 14.0006 70.5064 13.2161 70.5064 12.2483C70.5064 11.2806 69.7219 10.4961 68.7542 10.4961C67.7865 10.4961 67.002 11.2806 67.002 12.2483C67.002 13.2161 67.7865 14.0006 68.7542 14.0006Z" fill="#FF4D61"/>
<path d="M6.00195 29.192C4.94595 29.192 4.02329 28.952 3.23395 28.472C2.44462 27.992 1.83129 27.32 1.39395 26.456C0.95662 25.592 0.737953 24.584 0.737953 23.432C0.737953 22.2907 0.961953 21.2827 1.40995 20.408C1.85795 19.5333 2.49262 18.8507 3.31395 18.36C4.14595 17.8587 5.12729 17.608 6.25795 17.608C7.53795 17.608 8.60462 17.9173 9.45795 18.536C10.3113 19.1547 10.866 20.008 11.122 21.096H9.20195C9.03129 20.4987 8.69529 20.0293 8.19395 19.688C7.69262 19.3467 7.04729 19.176 6.25795 19.176C5.08462 19.176 4.16195 19.5547 3.48995 20.312C2.81795 21.0693 2.48195 22.1147 2.48195 23.448C2.48195 24.7813 2.81262 25.8213 3.47395 26.568C4.13529 27.3147 5.01529 27.688 6.11395 27.688C7.22329 27.688 8.05529 27.3733 8.60995 26.744C9.17529 26.1147 9.50595 25.2773 9.60195 24.232H6.56195V22.92H11.314V29H9.76195L9.61795 27.352C9.24462 27.9387 8.77529 28.392 8.20995 28.712C7.64462 29.032 6.90862 29.192 6.00195 29.192ZM17.0203 29.192C16.263 29.192 15.5803 29.0213 14.9723 28.68C14.375 28.328 13.9003 27.8427 13.5483 27.224C13.1963 26.5947 13.0203 25.864 13.0203 25.032C13.0203 24.2 13.1963 23.4747 13.5483 22.856C13.911 22.2267 14.3963 21.7413 15.0043 21.4C15.6123 21.048 16.2897 20.872 17.0363 20.872C17.7937 20.872 18.471 21.048 19.0683 21.4C19.6763 21.7413 20.1563 22.2267 20.5083 22.856C20.871 23.4747 21.0523 24.2 21.0523 25.032C21.0523 25.864 20.871 26.5947 20.5083 27.224C20.1563 27.8427 19.6763 28.328 19.0683 28.68C18.4603 29.0213 17.7777 29.192 17.0203 29.192ZM17.0203 27.736C17.4257 27.736 17.799 27.6347 18.1403 27.432C18.4923 27.2293 18.775 26.9307 18.9883 26.536C19.2017 26.1307 19.3083 25.6293 19.3083 25.032C19.3083 24.4347 19.2017 23.9387 18.9883 23.544C18.7857 23.1387 18.5083 22.8347 18.1563 22.632C17.815 22.4293 17.4417 22.328 17.0363 22.328C16.631 22.328 16.2523 22.4293 15.9003 22.632C15.559 22.8347 15.2817 23.1387 15.0683 23.544C14.855 23.9387 14.7483 24.4347 14.7483 25.032C14.7483 25.6293 14.855 26.1307 15.0683 26.536C15.2817 26.9307 15.559 27.2293 15.9003 27.432C16.2417 27.6347 16.615 27.736 17.0203 27.736ZM24.7042 29L21.7282 21.064H23.5042L25.7122 27.384L27.9202 21.064H29.6802L26.7202 29H24.7042ZM34.3797 29.192C33.601 29.192 32.9077 29.0213 32.2997 28.68C31.7024 28.328 31.233 27.8427 30.8917 27.224C30.5504 26.6053 30.3797 25.8853 30.3797 25.064C30.3797 24.232 30.545 23.5013 30.8757 22.872C31.217 22.2427 31.6864 21.752 32.2837 21.4C32.8917 21.048 33.5957 20.872 34.3957 20.872C35.1744 20.872 35.8517 21.048 36.4277 21.4C37.0037 21.7413 37.4517 22.2 37.7717 22.776C38.0917 23.352 38.2517 23.9867 38.2517 24.68C38.2517 24.7867 38.2464 24.904 38.2357 25.032C38.2357 25.1493 38.2304 25.2827 38.2197 25.432H32.0437C32.097 26.2 32.3477 26.7867 32.7957 27.192C33.2544 27.5867 33.7824 27.784 34.3797 27.784C34.8597 27.784 35.2597 27.6773 35.5797 27.464C35.9104 27.24 36.1557 26.9413 36.3157 26.568H38.0117C37.7984 27.3147 37.3717 27.9387 36.7317 28.44C36.1024 28.9413 35.3184 29.192 34.3797 29.192ZM34.3797 22.264C33.8144 22.264 33.313 22.4347 32.8757 22.776C32.4384 23.1067 32.1717 23.608 32.0757 24.28H36.5557C36.5237 23.6613 36.305 23.1707 35.8997 22.808C35.4944 22.4453 34.9877 22.264 34.3797 22.264ZM40.0115 29V21.064H41.5315L41.6755 22.568C41.9528 22.0453 42.3368 21.6347 42.8275 21.336C43.3288 21.0267 43.9315 20.872 44.6355 20.872V22.648H44.1715C43.7021 22.648 43.2808 22.728 42.9075 22.888C42.5448 23.0373 42.2515 23.2987 42.0275 23.672C41.8141 24.0347 41.7075 24.5413 41.7075 25.192V29H40.0115ZM46.0896 29V21.064H47.5936L47.7216 22.456C47.9669 21.9653 48.3242 21.5813 48.7936 21.304C49.2736 21.016 49.8229 20.872 50.4416 20.872C51.4016 20.872 52.1536 21.1707 52.6976 21.768C53.2522 22.3653 53.5296 23.256 53.5296 24.44V29H51.8496V24.616C51.8496 23.08 51.2202 22.312 49.9616 22.312C49.3322 22.312 48.8096 22.536 48.3936 22.984C47.9882 23.432 47.7856 24.072 47.7856 24.904V29H46.0896ZM58.2151 29.192C57.5431 29.192 56.9884 29.08 56.5511 28.856C56.1137 28.632 55.7884 28.3387 55.5751 27.976C55.3617 27.6027 55.2551 27.1973 55.2551 26.76C55.2551 25.992 55.5537 25.384 56.1511 24.936C56.7484 24.488 57.6017 24.264 58.7111 24.264H60.7911V24.12C60.7911 23.5013 60.6204 23.0373 60.2791 22.728C59.9484 22.4187 59.5164 22.264 58.9831 22.264C58.5137 22.264 58.1031 22.3813 57.7511 22.616C57.4097 22.84 57.2017 23.176 57.1271 23.624H55.4311C55.4844 23.048 55.6764 22.5573 56.0071 22.152C56.3484 21.736 56.7751 21.4213 57.2871 21.208C57.8097 20.984 58.3804 20.872 58.9991 20.872C60.1084 20.872 60.9671 21.1653 61.5751 21.752C62.1831 22.328 62.4871 23.1173 62.4871 24.12V29H61.0151L60.8711 27.64C60.6471 28.0773 60.3217 28.4453 59.8951 28.744C59.4684 29.0427 58.9084 29.192 58.2151 29.192ZM58.5511 27.816C59.0097 27.816 59.3937 27.7093 59.7031 27.496C60.0231 27.272 60.2684 26.9787 60.4391 26.616C60.6204 26.2533 60.7324 25.8533 60.7751 25.416H58.8871C58.2151 25.416 57.7351 25.5333 57.4471 25.768C57.1697 26.0027 57.0311 26.296 57.0311 26.648C57.0311 27.0107 57.1644 27.2987 57.4311 27.512C57.7084 27.7147 58.0817 27.816 58.5511 27.816ZM64.4646 29V21.064H65.9686L66.0966 22.456C66.3419 21.9653 66.6992 21.5813 67.1686 21.304C67.6486 21.016 68.1979 20.872 68.8166 20.872C69.7766 20.872 70.5286 21.1707 71.0726 21.768C71.6272 22.3653 71.9046 23.256 71.9046 24.44V29H70.2246V24.616C70.2246 23.08 69.5952 22.312 68.3366 22.312C67.7072 22.312 67.1846 22.536 66.7686 22.984C66.3632 23.432 66.1606 24.072 66.1606 24.904V29H64.4646ZM77.6621 29.192C76.8834 29.192 76.1847 29.016 75.5661 28.664C74.9581 28.312 74.4781 27.8267 74.1261 27.208C73.7847 26.5787 73.6141 25.8533 73.6141 25.032C73.6141 24.2107 73.7847 23.4907 74.1261 22.872C74.4781 22.2427 74.9581 21.752 75.5661 21.4C76.1847 21.048 76.8834 20.872 77.6621 20.872C78.6434 20.872 79.4647 21.128 80.1261 21.64C80.7981 22.152 81.2301 22.8453 81.4221 23.72H79.6461C79.5394 23.2827 79.3047 22.9413 78.9421 22.696C78.5794 22.4507 78.1527 22.328 77.6621 22.328C77.2461 22.328 76.8621 22.4347 76.5101 22.648C76.1581 22.8507 75.8754 23.1547 75.6621 23.56C75.4487 23.9547 75.3421 24.4453 75.3421 25.032C75.3421 25.6187 75.4487 26.1147 75.6621 26.52C75.8754 26.9147 76.1581 27.2187 76.5101 27.432C76.8621 27.6453 77.2461 27.752 77.6621 27.752C78.1527 27.752 78.5794 27.6293 78.9421 27.384C79.3047 27.1387 79.5394 26.792 79.6461 26.344H81.4221C81.2407 27.1973 80.8141 27.8853 80.1421 28.408C79.4701 28.9307 78.6434 29.192 77.6621 29.192ZM86.9735 29.192C86.1948 29.192 85.5015 29.0213 84.8935 28.68C84.2961 28.328 83.8268 27.8427 83.4855 27.224C83.1441 26.6053 82.9735 25.8853 82.9735 25.064C82.9735 24.232 83.1388 23.5013 83.4695 22.872C83.8108 22.2427 84.2801 21.752 84.8775 21.4C85.4855 21.048 86.1895 20.872 86.9895 20.872C87.7681 20.872 88.4455 21.048 89.0215 21.4C89.5975 21.7413 90.0455 22.2 90.3655 22.776C90.6855 23.352 90.8455 23.9867 90.8455 24.68C90.8455 24.7867 90.8401 24.904 90.8295 25.032C90.8295 25.1493 90.8241 25.2827 90.8135 25.432H84.6375C84.6908 26.2 84.9415 26.7867 85.3895 27.192C85.8481 27.5867 86.3761 27.784 86.9735 27.784C87.4535 27.784 87.8535 27.6773 88.1735 27.464C88.5041 27.24 88.7495 26.9413 88.9095 26.568H90.6055C90.3921 27.3147 89.9655 27.9387 89.3255 28.44C88.6961 28.9413 87.9121 29.192 86.9735 29.192ZM86.9735 22.264C86.4081 22.264 85.9068 22.4347 85.4695 22.776C85.0321 23.1067 84.7655 23.608 84.6695 24.28H89.1495C89.1175 23.6613 88.8988 23.1707 88.4935 22.808C88.0881 22.4453 87.5815 22.264 86.9735 22.264ZM96.7005 29V17.8H100.332C101.644 17.8 102.722 18.0293 103.564 18.488C104.418 18.9467 105.047 19.5973 105.452 20.44C105.868 21.272 106.076 22.264 106.076 23.416C106.076 24.5573 105.868 25.5493 105.452 26.392C105.047 27.224 104.418 27.8693 103.564 28.328C102.722 28.776 101.644 29 100.332 29H96.7005ZM98.3965 27.56H100.268C101.282 27.56 102.082 27.3947 102.668 27.064C103.266 26.7333 103.692 26.2587 103.948 25.64C104.215 25.0213 104.348 24.28 104.348 23.416C104.348 22.552 104.215 21.8053 103.948 21.176C103.692 20.5467 103.266 20.0667 102.668 19.736C102.082 19.3947 101.282 19.224 100.268 19.224H98.3965V27.56ZM110.574 29.192C109.902 29.192 109.348 29.08 108.91 28.856C108.473 28.632 108.148 28.3387 107.934 27.976C107.721 27.6027 107.614 27.1973 107.614 26.76C107.614 25.992 107.913 25.384 108.51 24.936C109.108 24.488 109.961 24.264 111.07 24.264H113.15V24.12C113.15 23.5013 112.98 23.0373 112.638 22.728C112.308 22.4187 111.876 22.264 111.342 22.264C110.873 22.264 110.462 22.3813 110.11 22.616C109.769 22.84 109.561 23.176 109.486 23.624H107.79C107.844 23.048 108.036 22.5573 108.366 22.152C108.708 21.736 109.134 21.4213 109.646 21.208C110.169 20.984 110.74 20.872 111.358 20.872C112.468 20.872 113.326 21.1653 113.934 21.752C114.542 22.328 114.846 23.1173 114.846 24.12V29H113.374L113.23 27.64C113.006 28.0773 112.681 28.4453 112.254 28.744C111.828 29.0427 111.268 29.192 110.574 29.192ZM110.91 27.816C111.369 27.816 111.753 27.7093 112.062 27.496C112.382 27.272 112.628 26.9787 112.798 26.616C112.98 26.2533 113.092 25.8533 113.134 25.416H111.246C110.574 25.416 110.094 25.5333 109.806 25.768C109.529 26.0027 109.39 26.296 109.39 26.648C109.39 27.0107 109.524 27.2987 109.79 27.512C110.068 27.7147 110.441 27.816 110.91 27.816ZM119.992 29.192C118.989 29.192 118.163 28.9467 117.512 28.456C116.861 27.9653 116.488 27.3147 116.392 26.504H118.104C118.189 26.8667 118.392 27.1813 118.712 27.448C119.032 27.704 119.453 27.832 119.976 27.832C120.488 27.832 120.861 27.7253 121.096 27.512C121.331 27.2987 121.448 27.0533 121.448 26.776C121.448 26.3707 121.283 26.0987 120.952 25.96C120.632 25.8107 120.184 25.6773 119.608 25.56C119.16 25.464 118.712 25.336 118.264 25.176C117.827 25.016 117.459 24.792 117.16 24.504C116.872 24.2053 116.728 23.8053 116.728 23.304C116.728 22.6107 116.995 22.0347 117.528 21.576C118.061 21.1067 118.808 20.872 119.768 20.872C120.653 20.872 121.368 21.0853 121.912 21.512C122.467 21.9387 122.792 22.5413 122.888 23.32H121.256C121.203 22.9787 121.043 22.712 120.776 22.52C120.52 22.328 120.173 22.232 119.736 22.232C119.309 22.232 118.979 22.3227 118.744 22.504C118.509 22.6747 118.392 22.8987 118.392 23.176C118.392 23.4533 118.552 23.672 118.872 23.832C119.203 23.992 119.635 24.136 120.168 24.264C120.701 24.3813 121.192 24.52 121.64 24.68C122.099 24.8293 122.467 25.0533 122.744 25.352C123.021 25.6507 123.16 26.088 123.16 26.664C123.171 27.3893 122.888 27.992 122.312 28.472C121.747 28.952 120.973 29.192 119.992 29.192ZM125.011 29V17.48H126.707V22.344C126.974 21.8853 127.342 21.528 127.811 21.272C128.291 21.0053 128.819 20.872 129.395 20.872C130.345 20.872 131.091 21.1707 131.635 21.768C132.179 22.3653 132.451 23.256 132.451 24.44V29H130.771V24.616C130.771 23.08 130.158 22.312 128.931 22.312C128.291 22.312 127.758 22.536 127.331 22.984C126.915 23.432 126.707 24.072 126.707 24.904V29H125.011ZM138.913 29.192C138.294 29.192 137.745 29.0693 137.265 28.824C136.796 28.5787 136.422 28.232 136.145 27.784L135.969 29H134.449V17.48H136.145V22.296C136.401 21.9227 136.753 21.592 137.201 21.304C137.649 21.016 138.225 20.872 138.929 20.872C139.697 20.872 140.374 21.0533 140.961 21.416C141.548 21.7787 142.006 22.2747 142.337 22.904C142.678 23.5333 142.849 24.248 142.849 25.048C142.849 25.848 142.678 26.5627 142.337 27.192C142.006 27.8107 141.548 28.3013 140.961 28.664C140.374 29.016 139.692 29.192 138.913 29.192ZM138.625 27.72C139.35 27.72 139.948 27.4747 140.417 26.984C140.886 26.4827 141.121 25.832 141.121 25.032C141.121 24.5093 141.014 24.0453 140.801 23.64C140.588 23.2347 140.294 22.92 139.921 22.696C139.548 22.4613 139.116 22.344 138.625 22.344C137.9 22.344 137.302 22.5947 136.833 23.096C136.374 23.5973 136.145 24.2427 136.145 25.032C136.145 25.832 136.374 26.4827 136.833 26.984C137.302 27.4747 137.9 27.72 138.625 27.72ZM148.395 29.192C147.638 29.192 146.955 29.0213 146.347 28.68C145.75 28.328 145.275 27.8427 144.923 27.224C144.571 26.5947 144.395 25.864 144.395 25.032C144.395 24.2 144.571 23.4747 144.923 22.856C145.286 22.2267 145.771 21.7413 146.379 21.4C146.987 21.048 147.665 20.872 148.411 20.872C149.169 20.872 149.846 21.048 150.443 21.4C151.051 21.7413 151.531 22.2267 151.883 22.856C152.246 23.4747 152.427 24.2 152.427 25.032C152.427 25.864 152.246 26.5947 151.883 27.224C151.531 27.8427 151.051 28.328 150.443 28.68C149.835 29.0213 149.153 29.192 148.395 29.192ZM148.395 27.736C148.801 27.736 149.174 27.6347 149.515 27.432C149.867 27.2293 150.15 26.9307 150.363 26.536C150.577 26.1307 150.683 25.6293 150.683 25.032C150.683 24.4347 150.577 23.9387 150.363 23.544C150.161 23.1387 149.883 22.8347 149.531 22.632C149.19 22.4293 148.817 22.328 148.411 22.328C148.006 22.328 147.627 22.4293 147.275 22.632C146.934 22.8347 146.657 23.1387 146.443 23.544C146.23 23.9387 146.123 24.4347 146.123 25.032C146.123 25.6293 146.23 26.1307 146.443 26.536C146.657 26.9307 146.934 27.2293 147.275 27.432C147.617 27.6347 147.99 27.736 148.395 27.736ZM156.949 29.192C156.277 29.192 155.723 29.08 155.285 28.856C154.848 28.632 154.523 28.3387 154.309 27.976C154.096 27.6027 153.989 27.1973 153.989 26.76C153.989 25.992 154.288 25.384 154.885 24.936C155.483 24.488 156.336 24.264 157.445 24.264H159.525V24.12C159.525 23.5013 159.355 23.0373 159.013 22.728C158.683 22.4187 158.251 22.264 157.717 22.264C157.248 22.264 156.837 22.3813 156.485 22.616C156.144 22.84 155.936 23.176 155.861 23.624H154.165C154.219 23.048 154.411 22.5573 154.741 22.152C155.083 21.736 155.509 21.4213 156.021 21.208C156.544 20.984 157.115 20.872 157.733 20.872C158.843 20.872 159.701 21.1653 160.309 21.752C160.917 22.328 161.221 23.1173 161.221 24.12V29H159.749L159.605 27.64C159.381 28.0773 159.056 28.4453 158.629 28.744C158.203 29.0427 157.643 29.192 156.949 29.192ZM157.285 27.816C157.744 27.816 158.128 27.7093 158.437 27.496C158.757 27.272 159.003 26.9787 159.173 26.616C159.355 26.2533 159.467 25.8533 159.509 25.416H157.621C156.949 25.416 156.469 25.5333 156.181 25.768C155.904 26.0027 155.765 26.296 155.765 26.648C155.765 27.0107 155.899 27.2987 156.165 27.512C156.443 27.7147 156.816 27.816 157.285 27.816ZM163.199 29V21.064H164.719L164.863 22.568C165.14 22.0453 165.524 21.6347 166.015 21.336C166.516 21.0267 167.119 20.872 167.823 20.872V22.648H167.359C166.89 22.648 166.468 22.728 166.095 22.888C165.732 23.0373 165.439 23.2987 165.215 23.672C165.002 24.0347 164.895 24.5413 164.895 25.192V29H163.199ZM172.674 29.192C171.906 29.192 171.229 29.0107 170.642 28.648C170.056 28.2853 169.597 27.7893 169.266 27.16C168.936 26.5307 168.77 25.816 168.77 25.016C168.77 24.216 168.936 23.5067 169.266 22.888C169.597 22.2587 170.056 21.768 170.642 21.416C171.24 21.0533 171.922 20.872 172.69 20.872C173.32 20.872 173.869 20.9947 174.338 21.24C174.818 21.4853 175.192 21.832 175.458 22.28V17.48H177.154V29H175.634L175.458 27.768C175.202 28.1413 174.85 28.472 174.402 28.76C173.954 29.048 173.378 29.192 172.674 29.192ZM172.978 27.72C173.704 27.72 174.296 27.4693 174.754 26.968C175.224 26.4667 175.458 25.8213 175.458 25.032C175.458 24.232 175.224 23.5867 174.754 23.096C174.296 22.5947 173.704 22.344 172.978 22.344C172.253 22.344 171.656 22.5947 171.186 23.096C170.717 23.5867 170.482 24.232 170.482 25.032C170.482 25.5547 170.589 26.0187 170.802 26.424C171.016 26.8293 171.309 27.1493 171.682 27.384C172.066 27.608 172.498 27.72 172.978 27.72Z" fill="#101828"/>
</svg>
