<svg width="32" height="32" viewBox="0 0 32 32" fill="none" xmlns="http://www.w3.org/2000/svg">
<path d="M16.0004 18.8504C17.5755 18.8504 18.8523 17.5735 18.8523 15.9984C18.8523 14.4233 17.5755 13.1465 16.0004 13.1465C14.4253 13.1465 13.1484 14.4233 13.1484 15.9984C13.1484 17.5735 14.4253 18.8504 16.0004 18.8504Z" fill="#FF4D61"/>
<path d="M0.945482 26.2956H0V23.4126H0.945482C5.03223 23.4126 8.35778 20.0871 8.35778 16.0003C8.35778 11.9136 5.03223 8.58802 0.945482 8.58802H0V5.70508H0.945482C6.62181 5.70508 11.2407 10.324 11.2407 16.0003C11.2407 21.6767 6.62181 26.2956 0.945482 26.2956Z" fill="#FF4D61"/>
<path d="M16.0003 11.2407C10.324 11.2407 5.70508 6.62182 5.70508 0.945483V0H8.58802V0.945483C8.58802 5.03224 11.9136 8.35779 16.0003 8.35779C20.0871 8.35779 23.4126 5.03224 23.4126 0.945483V0H26.2956V0.945483C26.2956 6.62182 21.6766 11.2407 16.0003 11.2407Z" fill="#FF4D61"/>
<path d="M26.2956 32.0005H23.4126V31.055C23.4126 26.9683 20.0871 23.6427 16.0003 23.6427C11.9136 23.6427 8.58802 26.9683 8.58802 31.055V32.0005H5.70508V31.055C5.70508 25.3787 10.324 20.7598 16.0003 20.7598C21.6766 20.7598 26.2956 25.3787 26.2956 31.055V32.0005Z" fill="#FF4D61"/>
<path d="M32.0024 26.2956H31.057C25.3806 26.2956 20.7617 21.6767 20.7617 16.0003C20.7617 10.324 25.3806 5.70508 31.057 5.70508H32.0024V8.58802H31.057C26.9702 8.58802 23.6447 11.9136 23.6447 16.0003C23.6447 20.0871 26.9702 23.4126 31.057 23.4126H32.0024V26.2956Z" fill="#FF4D61"/>
</svg>
