<svg width="33" height="32" viewBox="0 0 33 32" fill="none" xmlns="http://www.w3.org/2000/svg">
<path d="M16.0009 18.8511C17.576 18.8511 18.8528 17.5742 18.8528 15.9992C18.8528 14.4241 17.576 13.1472 16.0009 13.1472C14.4258 13.1472 13.1489 14.4241 13.1489 15.9992C13.1489 17.5742 14.4258 18.8511 16.0009 18.8511Z" fill="#FF0421"/>
<path d="M0.945482 26.2962H0V23.4132H0.945482C5.03223 23.4132 8.35778 20.0877 8.35778 16.0009C8.35778 11.9142 5.03223 8.58863 0.945482 8.58863H0V5.70569H0.945482C6.62181 5.70569 11.2407 10.3246 11.2407 16.0009C11.2407 21.6773 6.62181 26.2962 0.945482 26.2962Z" fill="#FF0421"/>
<path d="M16.0008 11.2407C10.3245 11.2407 5.70557 6.62182 5.70557 0.945483V0H8.58851V0.945483C8.58851 5.03224 11.9141 8.35779 16.0008 8.35779C20.0876 8.35779 23.4131 5.03224 23.4131 0.945483V0H26.296V0.945483C26.296 6.62182 21.6771 11.2407 16.0008 11.2407Z" fill="#FF0421"/>
<path d="M26.296 32H23.4131V31.0545C23.4131 26.9678 20.0876 23.6422 16.0008 23.6422C11.9141 23.6422 8.58851 26.9678 8.58851 31.0545V32H5.70557V31.0545C5.70557 25.3782 10.3245 20.7593 16.0008 20.7593C21.6771 20.7593 26.296 25.3782 26.296 31.0545V32Z" fill="#FF0421"/>
<path d="M32.0017 26.2962H31.0562C25.3799 26.2962 20.761 21.6773 20.761 16.0009C20.761 10.3246 25.3799 5.70569 31.0562 5.70569H32.0017V8.58863H31.0562C26.9695 8.58863 23.6439 11.9142 23.6439 16.0009C23.6439 20.0877 26.9695 23.4132 31.0562 23.4132H32.0017V26.2962Z" fill="#FF0421"/>
</svg>
