<svg width="64" height="64" viewBox="0 0 64 64" fill="none" xmlns="http://www.w3.org/2000/svg">
<rect width="64" height="64" rx="32" fill="#FF0420"/>
<path d="M20.1613 42.2953C17.8925 42.2953 16.0337 41.7614 14.5847 40.6937C13.1548 39.607 12.4398 38.0628 12.4398 36.0609C12.4398 35.6414 12.4875 35.1266 12.5828 34.5165C12.8308 33.1439 13.1834 31.4946 13.641 29.569C14.9374 24.3261 18.2834 21.7046 23.679 21.7046C25.147 21.7046 26.4625 21.9524 27.6255 22.4481C28.7886 22.9246 29.7037 23.6492 30.3709 24.6216C31.0382 25.5748 31.372 26.7188 31.372 28.0533C31.372 28.4537 31.3243 28.9589 31.2289 29.569C30.9429 31.2658 30.5997 32.9151 30.1993 34.5165C29.5321 37.1285 28.3786 39.0827 26.739 40.3792C25.0993 41.6565 22.9069 42.2953 20.1613 42.2953ZM20.5617 38.1771C21.6295 38.1771 22.535 37.8625 23.2786 37.2334C24.0413 36.6042 24.5846 35.6414 24.9086 34.345C25.3471 32.5528 25.6809 30.9894 25.9097 29.6549C25.9859 29.2545 26.024 28.8446 26.024 28.425C26.024 26.6901 25.1184 25.8226 23.3072 25.8226C22.2394 25.8226 21.3244 26.1372 20.5617 26.7663C19.8182 27.3957 19.2843 28.3584 18.9603 29.6549C18.6171 30.9322 18.2738 32.4957 17.9308 34.345C17.8544 34.7262 17.8163 35.1266 17.8163 35.546C17.8163 37.3001 18.7315 38.1771 20.5617 38.1771Z" fill="white"/>
<path d="M32.6844 42.0096C32.4747 42.0096 32.3125 41.9428 32.1982 41.8093C32.1028 41.6567 32.0743 41.4853 32.1124 41.2946L36.059 22.7057C36.0971 22.496 36.2019 22.3244 36.3735 22.1908C36.5452 22.0575 36.7262 21.9907 36.9169 21.9907H44.5241C46.6403 21.9907 48.3371 22.4292 49.6145 23.3062C50.911 24.1833 51.5593 25.4511 51.5593 27.1098C51.5593 27.5864 51.5021 28.0822 51.3876 28.5969C50.911 30.7895 49.9483 32.4101 48.4993 33.4587C47.0694 34.5072 45.1055 35.0315 42.608 35.0315H38.7472L37.4317 41.2946C37.3935 41.5043 37.2886 41.6758 37.1172 41.8093C36.9455 41.9428 36.7643 42.0096 36.5738 42.0096H32.6844ZM42.8082 31.085C43.6088 31.085 44.3048 30.8657 44.8958 30.4272C45.5059 29.9887 45.9063 29.3595 46.097 28.5397C46.1541 28.2155 46.1828 27.9296 46.1828 27.6818C46.1828 27.1288 46.0208 26.7094 45.6966 26.4235C45.3724 26.1183 44.8196 25.9659 44.0379 25.9659H40.606L39.5193 31.085H42.8082Z" fill="white"/>
</svg>
